<?xml version="1.0" encoding="utf-8"?>
<!-- Generator: Adobe Illustrator 26.5.0, SVG Export Plug-In . SVG Version: 6.00 Build 0)  -->
<svg version="1.1" id="Layer_1" xmlns="http://www.w3.org/2000/svg" xmlns:xlink="http://www.w3.org/1999/xlink" x="0px" y="0px"
	 viewBox="0 0 512 512" style="enable-background:new 0 0 512 512;" xml:space="preserve">
<style type="text/css">
	.st0{display:none;fill:url(#CIRCLE_00000043459273956868800170000014009078409094860471_);}
	.st1{fill:url(#RECT_00000085956289244408901940000006378979316018806926_);}
	.st2{fill:#FFFFFF;}
</style>
<image style="display:none;overflow:visible;" width="1024" height="1024" xlink:href="C7DA4D00.jpg"  transform="matrix(0.5 0 0 0.5 -1.315714e-02 -1.315714e-02)">
</image>
<linearGradient id="CIRCLE_00000008827423146519251640000016605077796023294082_" gradientUnits="userSpaceOnUse" x1="256" y1="2" x2="256" y2="514" gradientTransform="matrix(1 0 0 -1 0 514)">
	<stop  offset="2.131116e-07" style="stop-color:#1F7BF6"/>
	<stop  offset="1" style="stop-color:#61C8FA"/>
</linearGradient>
<circle id="CIRCLE" style="display:none;fill:url(#CIRCLE_00000008827423146519251640000016605077796023294082_);" cx="256" cy="256" r="256"/>
<linearGradient id="RECT_00000136396008580404003870000012572199379424740254_" gradientUnits="userSpaceOnUse" x1="256" y1="512" x2="256" y2="-9.094947e-13">
	<stop  offset="2.131116e-07" style="stop-color:#1F7BF6"/>
	<stop  offset="1" style="stop-color:#61C8FA"/>
</linearGradient>
<rect id="RECT" style="fill:url(#RECT_00000136396008580404003870000012572199379424740254_);" width="512" height="512"/>
<g id="RANDOM" transform="matrix(1 0 0 1 2854.14 1126)">
	<path class="st2" d="M-2768.4-795.5c0,12,9.8,21.7,21.8,21.7h33.3c24.7,0,40.5-8.2,53.7-25.2l81.6-103.8
		c11.4-14.6,19.1-19.2,37-19.2h23.2v24.5c0,10.4,6.4,16.9,16.5,16.9c4.9,0,8.5-1.7,11.4-4.2l57.1-48.7c7.5-6.4,7.3-17,0-23.3
		l-57.1-48.6c-2.9-2.5-6.5-4.1-11.4-4.1c-10.1,0-16.5,6.5-16.5,16.9v27.2h-19.5c-28.3,0-49.2,7.1-69.3,32.8l-74.6,95.9
		c-10.5,13.5-21,19.5-39.8,19.5h-25.6C-2758.6-817.2-2768.4-807.5-2768.4-795.5z M-2768.4-943.7c0,12,9.8,21.7,21.8,21.7h21.2
		c18.9,0,33.7,6.1,44.2,19.5l78.7,100.5c15.9,20.2,40.1,28.3,64.8,28.3h20v26.4c0,10.4,6.4,16.9,16.5,16.9c4.9,0,8.5-1.7,11.4-4.1
		l57.1-48.7c7.5-6.4,7.3-17.1,0-23.4l-57.1-48.6c-2.9-2.5-6.5-4.2-11.4-4.2c-10.1,0-16.5,6.5-16.5,16.9v25.3h-19.4
		c-18.8,0-30.9-6.2-41.4-19.6l-81-103.4c-13.3-17-33.4-25.2-58.1-25.2h-28.9C-2758.6-965.4-2768.4-955.6-2768.4-943.7z"/>
</g>
</svg>
