<svg id="Layer_1" data-name="Layer 1" xmlns="http://www.w3.org/2000/svg" xmlns:xlink="http://www.w3.org/1999/xlink" viewBox="0 0 512 512"><defs><linearGradient id="linear-gradient" x1="256" x2="256" y2="512" gradientTransform="matrix(1, 0, 0, -1, 0, 512)" gradientUnits="userSpaceOnUse"><stop offset="0" stop-color="#507abd"/><stop offset="1" stop-color="#4abaeb"/></linearGradient></defs><g id="Layer_1-2" data-name="Layer 1"><circle cx="256" cy="256" r="256" style="fill:url(#linear-gradient)"/></g><g id="Layer_2" data-name="Layer 2"><path d="M404.4,138.1a8.65,8.65,0,0,0-7.5-4.3H117.7a8.65,8.65,0,0,0-7.5,13l27.9,47.8H376.5l27.9-47.8A9,9,0,0,0,404.4,138.1Z" style="fill:#fff"/><polygon points="182.7 272.8 207.6 316.2 307 316.2 331.8 272.8 182.7 272.8" style="fill:#fff"/><polygon points="148 212 172.8 255.4 341.7 255.4 366.6 212 148 212" style="fill:#fff"/><path d="M213.8,333.6v69.5a8.71,8.71,0,0,0,8.7,8.7H292a8.71,8.71,0,0,0,8.7-8.7V333.6Z" style="fill:#fff"/></g></svg>