<?xml version="1.0" encoding="utf-8"?>
<!-- Generator: Adobe Illustrator 25.0.1, SVG Export Plug-In . SVG Version: 6.00 Build 0)  -->
<svg version="1.1" id="Layer_1" xmlns="http://www.w3.org/2000/svg" xmlns:xlink="http://www.w3.org/1999/xlink" x="0px" y="0px"
	 viewBox="0 0 512 512" style="enable-background:new 0 0 512 512;" xml:space="preserve">
<style type="text/css">
	.st0{fill:url(#SVGID_1_);}
	.st1{fill:#FFFFFF;}
</style>
<linearGradient id="SVGID_1_" gradientUnits="userSpaceOnUse" x1="256" y1="512" x2="256" y2="-9.094947e-13">
	<stop  offset="0" style="stop-color:#507ABD"/>
	<stop  offset="1" style="stop-color:#4ABAEB"/>
</linearGradient>
<circle class="st0" cx="256" cy="256" r="256"/>
<g>
	<g>
		<path class="st1" d="M195.21,164.59c-5.17-7.01-13.47-11.07-22.14-11.07h-55.35c-5.17,0-9.23,4.06-9.23,9.23v36.9
			c0,5.17,4.06,9.23,9.23,9.23h41.51l28.6,38.19l31.55-50.18L195.21,164.59z"/>
	</g>
</g>
<g>
	<g>
		<path class="st1" d="M420.05,174c-0.18,0-0.18-0.18-0.37-0.18l-73.8-55.35c-6.33-4.64-14.76,0.09-14.76,7.38v27.67h-47.35
			c-16.77,0-23.37,13.22-23.98,13.84c-44.38,70.43-76.24,120.79-84.13,133.76h-57.93c-5.17,0-9.23,4.06-9.23,9.23v36.9
			c0,5.17,4.06,9.23,9.23,9.23h73.8c8.78,0,18.22-4.29,23.62-13.28c0.18-0.18,0.18-0.37,0.37-0.55
			c0.39-0.62,80.45-127.72,84.13-133.76h31.49v27.67c0,7.28,8.43,12.02,14.76,7.38l73.8-55.35c0.18,0,0.18-0.18,0.37-0.18
			C424.49,184.69,424.5,177.71,420.05,174z"/>
	</g>
</g>
<g>
	<g>
		<path class="st1" d="M419.68,321.41l-73.24-54.79l-0.55-0.55c-6.33-4.64-14.76,0.09-14.76,7.38v27.67h-33.52l-18.63-24.72
			l-31.55,50.18l14.21,18.82c5.17,7.01,13.47,11.07,22.14,11.07h47.35v27.67c0,7.63,8.93,11.92,14.76,7.38l73.8-55.35
			C424.6,332.77,424.61,324.83,419.68,321.41z"/>
	</g>
</g>
</svg>
