<?xml version="1.0" encoding="utf-8"?>
<!-- Generator: Adobe Illustrator 25.0.0, SVG Export Plug-In . SVG Version: 6.00 Build 0)  -->
<svg version="1.1" xmlns="http://www.w3.org/2000/svg" xmlns:xlink="http://www.w3.org/1999/xlink" x="0px" y="0px"
	 viewBox="0 0 512 512" style="enable-background:new 0 0 512 512;" xml:space="preserve">
<style type="text/css">
	.st0{fill:url(#SVGID_1_);}
	.st1{display:none;}
	.st2{display:inline;fill:url(#SVGID_2_);}
	.st3{fill:#FFFFFF;}
</style>
<g id="Layer_1">
	<linearGradient id="SVGID_1_" gradientUnits="userSpaceOnUse" x1="256" y1="512" x2="256" y2="-9.094947e-13">
		<stop  offset="0" style="stop-color:#507ABD"/>
		<stop  offset="1" style="stop-color:#4ABAEB"/>
	</linearGradient>
	<circle class="st0" cx="256" cy="256" r="256"/>
</g>
<g id="Layer_3" class="st1">
	<linearGradient id="SVGID_2_" gradientUnits="userSpaceOnUse" x1="256" y1="512" x2="256" y2="-9.094947e-13">
		<stop  offset="0" style="stop-color:#507ABD"/>
		<stop  offset="1" style="stop-color:#4ABAEB"/>
	</linearGradient>
	<rect class="st2" width="512" height="512"/>
</g>
<g id="Layer_2">
	<g>
		<g>
			<path class="st3" d="M404.4,138.1c-1.6-2.7-4.4-4.3-7.5-4.3H117.7c-3.1,0-6,1.6-7.5,4.3c-1.6,2.7-1.6,6,0,8.7l27.9,47.8h238.4
				l27.9-47.8C405.9,144.1,405.9,140.8,404.4,138.1z"/>
		</g>
	</g>
	<g>
		<g>
			<polygon class="st3" points="182.7,272.8 207.6,316.2 307,316.2 331.8,272.8 			"/>
		</g>
	</g>
	<g>
		<g>
			<polygon class="st3" points="148,212 172.8,255.4 341.7,255.4 366.6,212 			"/>
		</g>
	</g>
	<g>
		<g>
			<path class="st3" d="M213.8,333.6v69.5c0,4.8,3.9,8.7,8.7,8.7H292c4.8,0,8.7-3.9,8.7-8.7v-69.5H213.8z"/>
		</g>
	</g>
</g>
</svg>
