<svg id="Layer_1" data-name="Layer 1" xmlns="http://www.w3.org/2000/svg" viewBox="0 0 263.36 29.08"><path d="M8.74,10.54v2.8h.08a8.26,8.26,0,0,1,2.7-2.48A7.38,7.38,0,0,1,15.14,10a8.41,8.41,0,0,1,3.58.76,5,5,0,0,1,2.46,2.68,9,9,0,0,1,2.5-2.4,6.67,6.67,0,0,1,3.74-1,11.29,11.29,0,0,1,3,.4,6.3,6.3,0,0,1,2.4,1.28A5.87,5.87,0,0,1,34.42,14,9.42,9.42,0,0,1,35,17.38V31.22H29.3V19.5c0-.69,0-1.34-.08-2a4.15,4.15,0,0,0-.44-1.6,2.68,2.68,0,0,0-1.06-1.08,3.92,3.92,0,0,0-1.9-.4,3.69,3.69,0,0,0-1.94.46,3.41,3.41,0,0,0-1.16,1.2,4.83,4.83,0,0,0-.56,1.68A13.39,13.39,0,0,0,22,19.7V31.22H16.34V19.62c0-.61,0-1.22,0-1.82A5.22,5.22,0,0,0,16,16.14a2.58,2.58,0,0,0-1-1.22,3.83,3.83,0,0,0-2.06-.46,4.23,4.23,0,0,0-1.06.18,3.54,3.54,0,0,0-1.28.68A4.09,4.09,0,0,0,9.5,16.76a5.92,5.92,0,0,0-.44,2.46v12H3.38V10.54Z" transform="translate(-3.38 -2.66)"/><path d="M37.22,7.34V2.66H42.9V7.34Zm5.68,3.2V31.22H37.22V10.54Z" transform="translate(-3.38 -2.66)"/><path d="M54.86,14.26a4,4,0,0,0-2.28.62,5.1,5.1,0,0,0-1.5,1.6,7,7,0,0,0-.82,2.16A11.77,11.77,0,0,0,50,21a11.19,11.19,0,0,0,.24,2.28,6.92,6.92,0,0,0,.78,2.1A4.48,4.48,0,0,0,52.5,26.9a4,4,0,0,0,2.24.6,4.16,4.16,0,0,0,3.14-1.14,5.44,5.44,0,0,0,1.38-3.06h5.48a9.35,9.35,0,0,1-3.2,6.28,10.32,10.32,0,0,1-6.76,2.16A11.29,11.29,0,0,1,50.52,31a9.42,9.42,0,0,1-3.3-2.18,9.83,9.83,0,0,1-2.12-3.34,11.49,11.49,0,0,1-.76-4.26,13.72,13.72,0,0,1,.7-4.46,10.06,10.06,0,0,1,2.06-3.56,9.43,9.43,0,0,1,3.32-2.34A11.29,11.29,0,0,1,54.9,10a12.93,12.93,0,0,1,3.54.48,9.52,9.52,0,0,1,3,1.46,8,8,0,0,1,2.18,2.44,7.82,7.82,0,0,1,1,3.46H59.06A3.81,3.81,0,0,0,54.86,14.26Z" transform="translate(-3.38 -2.66)"/><path d="M71.74,2.66V18l7.16-7.44h6.72l-7.8,7.6L86.5,31.22H79.62L73.94,22l-2.2,2.12v7.12H66.06V2.66Z" transform="translate(-3.38 -2.66)"/><path d="M99.6,26.08a3.28,3.28,0,0,0,1,1.08,4.13,4.13,0,0,0,1.38.62,6.2,6.2,0,0,0,1.62.2,5.65,5.65,0,0,0,1.26-.14,4.19,4.19,0,0,0,1.2-.44,2.66,2.66,0,0,0,.9-.8,2.09,2.09,0,0,0,.36-1.26c0-.85-.57-1.49-1.7-1.92a35.13,35.13,0,0,0-4.74-1.28,23.93,23.93,0,0,1-2.42-.66,7.85,7.85,0,0,1-2.1-1,4.8,4.8,0,0,1-1.48-1.56,4.43,4.43,0,0,1-.56-2.3,6.25,6.25,0,0,1,.78-3.28,5.86,5.86,0,0,1,2.06-2,9.05,9.05,0,0,1,2.88-1,17.79,17.79,0,0,1,3.28-.3,16.61,16.61,0,0,1,3.26.32,9,9,0,0,1,2.82,1.08,6.51,6.51,0,0,1,2.06,2,6.79,6.79,0,0,1,1,3.18H107a2.49,2.49,0,0,0-1.24-2.22,5.77,5.77,0,0,0-2.64-.58,9.76,9.76,0,0,0-1,.06,3.64,3.64,0,0,0-1,.26,2.16,2.16,0,0,0-.78.58,1.71,1.71,0,0,0,.24,2.26,4.29,4.29,0,0,0,1.46.78,18.44,18.44,0,0,0,2.06.54l2.36.52c.83.19,1.63.42,2.42.68a8,8,0,0,1,2.1,1.06,5.16,5.16,0,0,1,1.48,1.64,4.87,4.87,0,0,1,.56,2.42,6.28,6.28,0,0,1-3,5.64,8.67,8.67,0,0,1-3,1.18,17.35,17.35,0,0,1-3.46.34,17.16,17.16,0,0,1-3.52-.36A9.23,9.23,0,0,1,97,30.18,6.86,6.86,0,0,1,94.76,28a6.94,6.94,0,0,1-.94-3.46h5.4A3.13,3.13,0,0,0,99.6,26.08Z" transform="translate(-3.38 -2.66)"/><path d="M123.78,14.26a4,4,0,0,0-2.28.62,5.1,5.1,0,0,0-1.5,1.6,7,7,0,0,0-.82,2.16,11.77,11.77,0,0,0-.24,2.34,11.19,11.19,0,0,0,.24,2.28,6.92,6.92,0,0,0,.78,2.1,4.48,4.48,0,0,0,1.46,1.54,4,4,0,0,0,2.24.6,4.16,4.16,0,0,0,3.14-1.14,5.44,5.44,0,0,0,1.38-3.06h5.48a9.35,9.35,0,0,1-3.2,6.28,10.32,10.32,0,0,1-6.76,2.16,11.29,11.29,0,0,1-4.26-.78,9.42,9.42,0,0,1-3.3-2.18A9.83,9.83,0,0,1,114,25.44a11.49,11.49,0,0,1-.76-4.26,13.72,13.72,0,0,1,.7-4.46A10.06,10.06,0,0,1,116,13.16a9.43,9.43,0,0,1,3.32-2.34,11.29,11.29,0,0,1,4.48-.84,12.93,12.93,0,0,1,3.54.48,9.52,9.52,0,0,1,3,1.46,8,8,0,0,1,2.18,2.44,7.82,7.82,0,0,1,1,3.46H128A3.81,3.81,0,0,0,123.78,14.26Z" transform="translate(-3.38 -2.66)"/><path d="M140.14,2.66V13.42h.12A6.6,6.6,0,0,1,143,10.8,7.53,7.53,0,0,1,146.3,10a9.7,9.7,0,0,1,3.74.62,5.65,5.65,0,0,1,2.3,1.72A6.77,6.77,0,0,1,153.52,15a16.49,16.49,0,0,1,.34,3.5V31.22h-5.68V19.54a7.3,7.3,0,0,0-.8-3.82,3.09,3.09,0,0,0-2.84-1.26,3.93,3.93,0,0,0-3.36,1.38,7.71,7.71,0,0,0-1,4.54V31.22h-5.68V2.66Z" transform="translate(-3.38 -2.66)"/><path d="M161.18,10.54v3.84h.08a7,7,0,0,1,1.08-1.78,7.18,7.18,0,0,1,1.56-1.4,7.94,7.94,0,0,1,1.88-.9,6.9,6.9,0,0,1,2.08-.32,4.61,4.61,0,0,1,1.24.2v5.28c-.27-.05-.59-.1-1-.14a10.19,10.19,0,0,0-1.08-.06,6.15,6.15,0,0,0-2.64.52,4.6,4.6,0,0,0-1.74,1.42,5.59,5.59,0,0,0-.94,2.1,11.27,11.27,0,0,0-.28,2.6v9.32h-5.68V10.54Z" transform="translate(-3.38 -2.66)"/><path d="M168.34,16.4A9.59,9.59,0,0,1,170.5,13a9.71,9.71,0,0,1,3.36-2.2,11.81,11.81,0,0,1,4.4-.78,12,12,0,0,1,4.42.78,9.42,9.42,0,0,1,5.54,5.64,12.87,12.87,0,0,1,.76,4.5,12.64,12.64,0,0,1-.76,4.48,9.69,9.69,0,0,1-2.16,3.42A9.34,9.34,0,0,1,182.68,31a12.2,12.2,0,0,1-4.42.76,12,12,0,0,1-4.4-.76,9.26,9.26,0,0,1-3.36-2.18,9.42,9.42,0,0,1-2.16-3.42,12.42,12.42,0,0,1-.76-4.48A12.65,12.65,0,0,1,168.34,16.4Zm5.16,6.92a6.29,6.29,0,0,0,.82,2.12,4.34,4.34,0,0,0,1.54,1.5,4.63,4.63,0,0,0,2.4.56,4.74,4.74,0,0,0,2.42-.56,4.32,4.32,0,0,0,1.56-1.5,6.51,6.51,0,0,0,.82-2.12,12,12,0,0,0,.24-2.42,12.46,12.46,0,0,0-.24-2.44,6.42,6.42,0,0,0-.82-2.12,4.67,4.67,0,0,0-1.56-1.5,4.74,4.74,0,0,0-2.42-.58,4.63,4.63,0,0,0-2.4.58,4.7,4.7,0,0,0-1.54,1.5,6.21,6.21,0,0,0-.82,2.12,12.46,12.46,0,0,0-.24,2.44A12,12,0,0,0,173.5,23.32Z" transform="translate(-3.38 -2.66)"/><path d="M196.34,26.26a5.82,5.82,0,0,0,6.64.38,3.6,3.6,0,0,0,1.52-1.82h5a9.48,9.48,0,0,1-3.68,5.32,10.79,10.79,0,0,1-6,1.6,11.77,11.77,0,0,1-4.4-.78,9.06,9.06,0,0,1-3.32-2.22A9.83,9.83,0,0,1,190,25.3a12.43,12.43,0,0,1-.74-4.4,12,12,0,0,1,.76-4.32,10.34,10.34,0,0,1,2.16-3.46,10.11,10.11,0,0,1,3.34-2.3,10.71,10.71,0,0,1,4.3-.84,9.84,9.84,0,0,1,4.6,1,9.31,9.31,0,0,1,3.22,2.74,11.47,11.47,0,0,1,1.82,3.92,14.91,14.91,0,0,1,.4,4.6H194.94A5.7,5.7,0,0,0,196.34,26.26Zm6.42-10.88a4,4,0,0,0-3.1-1.12,5,5,0,0,0-2.26.46A4.39,4.39,0,0,0,196,15.86a4.18,4.18,0,0,0-.76,1.44,6,6,0,0,0-.26,1.36h9.24A6.61,6.61,0,0,0,202.76,15.38Z" transform="translate(-3.38 -2.66)"/><path d="M225.5,28.58A5.86,5.86,0,0,1,222.88,31a9.57,9.57,0,0,1-7.74-.16,8.1,8.1,0,0,1-2.9-2.44,10.8,10.8,0,0,1-1.72-3.54,14.72,14.72,0,0,1-.58-4.16,13.91,13.91,0,0,1,.58-4,10.39,10.39,0,0,1,1.72-3.42,8.62,8.62,0,0,1,2.86-2.38,8.49,8.49,0,0,1,4-.9,8.16,8.16,0,0,1,3.5.78,6.1,6.1,0,0,1,2.62,2.3h.08V2.66H231V31.22h-5.4V28.58Zm-.24-10.22a6.2,6.2,0,0,0-.82-2.08,4.75,4.75,0,0,0-1.5-1.46,4.45,4.45,0,0,0-2.32-.56,4.63,4.63,0,0,0-2.36.56,4.46,4.46,0,0,0-1.54,1.48,6.51,6.51,0,0,0-.84,2.1,11.66,11.66,0,0,0-.26,2.46,10.35,10.35,0,0,0,.28,2.4,6.22,6.22,0,0,0,.9,2.14,4.82,4.82,0,0,0,1.56,1.52,4.18,4.18,0,0,0,2.26.58,4.46,4.46,0,0,0,2.34-.56,4.31,4.31,0,0,0,1.5-1.5,6.74,6.74,0,0,0,.8-2.14,12.57,12.57,0,0,0,.24-2.48A12.37,12.37,0,0,0,225.26,18.36Z" transform="translate(-3.38 -2.66)"/><path d="M238.94,26.26a5.82,5.82,0,0,0,6.64.38,3.6,3.6,0,0,0,1.52-1.82h5a9.48,9.48,0,0,1-3.68,5.32,10.84,10.84,0,0,1-6,1.6A11.77,11.77,0,0,1,238,31a9.06,9.06,0,0,1-3.32-2.22,9.83,9.83,0,0,1-2.1-3.44,12.43,12.43,0,0,1-.74-4.4,12,12,0,0,1,.76-4.32,10,10,0,0,1,5.5-5.76,10.68,10.68,0,0,1,4.3-.84,9.84,9.84,0,0,1,4.6,1,9.31,9.31,0,0,1,3.22,2.74,11.47,11.47,0,0,1,1.82,3.92,14.91,14.91,0,0,1,.4,4.6H237.54A5.7,5.7,0,0,0,238.94,26.26Zm6.42-10.88a4,4,0,0,0-3.1-1.12,5,5,0,0,0-2.26.46,4.39,4.39,0,0,0-1.44,1.14,4.18,4.18,0,0,0-.76,1.44,6,6,0,0,0-.26,1.36h9.24A6.61,6.61,0,0,0,245.36,15.38Z" transform="translate(-3.38 -2.66)"/><path d="M258.82,10.54v3.84h.08A6.68,6.68,0,0,1,260,12.6a7.18,7.18,0,0,1,1.56-1.4,7.94,7.94,0,0,1,1.88-.9A6.85,6.85,0,0,1,265.5,10a4.61,4.61,0,0,1,1.24.2v5.28c-.27-.05-.59-.1-1-.14a10.34,10.34,0,0,0-1.08-.06,6.15,6.15,0,0,0-2.64.52,4.6,4.6,0,0,0-1.74,1.42,5.59,5.59,0,0,0-.94,2.1,11.27,11.27,0,0,0-.28,2.6v9.32h-5.68V10.54Z" transform="translate(-3.38 -2.66)"/></svg>