<?xml version="1.0" encoding="utf-8"?>
<!-- Generator: Adobe Illustrator 26.5.0, SVG Export Plug-In . SVG Version: 6.00 Build 0)  -->
<svg version="1.1" id="Layer_1" focusable="false" xmlns="http://www.w3.org/2000/svg" xmlns:xlink="http://www.w3.org/1999/xlink"
	 x="0px" y="0px" viewBox="0 0 512 512" style="enable-background:new 0 0 512 512;" xml:space="preserve">
<g id="Black-M" transform="matrix(1 0 0 1 2854.14 1126)">
	<path d="M-2849.5-759.5c0,17.8,14.6,32.3,32.4,32.3h49.5c36.7,0,60.2-12.2,79.9-37.5l121.3-154.3c16.9-21.7,28.4-28.5,55.1-28.5
		h34.5v36.4c0,15.5,9.5,25.2,24.6,25.2c7.2,0,12.6-2.5,16.9-6.2l84.9-72.5c11.1-9.5,10.9-25.3,0-34.7l-84.9-72.3
		c-4.3-3.6-9.7-6.2-16.9-6.2c-15,0-24.6,9.7-24.6,25.2v40.5h-29c-42.1,0-73.2,10.5-103.1,48.7l-110.9,142.6
		c-15.6,20.1-31.2,28.9-59.2,28.9h-38.1C-2835-791.8-2849.5-777.3-2849.5-759.5z M-2849.5-979.8c0,17.8,14.6,32.3,32.4,32.3h31.6
		c28,0,50.1,9,65.7,28.9l117,149.4c23.6,30,59.7,42,96.4,42h29.7v39.3c0,15.5,9.5,25.2,24.6,25.2c7.2,0,12.6-2.5,16.9-6.2l84.9-72.5
		c11.1-9.5,10.9-25.4,0-34.7l-84.9-72.2c-4.3-3.7-9.7-6.2-16.9-6.2c-15,0-24.6,9.7-24.6,25.2v37.6h-28.9c-28,0-46-9.2-61.6-29.2
		l-120.5-153.7c-19.7-25.2-49.7-37.5-86.4-37.5h-43C-2835-1012.1-2849.5-997.6-2849.5-979.8z"/>
</g>
</svg>
