<svg viewBox="0 0 512 512" xmlns="http://www.w3.org/2000/svg" xmlns:xlink="http://www.w3.org/1999/xlink"><linearGradient id="a" gradientUnits="userSpaceOnUse" x1="256" x2="256" y1="512" y2="0"><stop offset="0" stop-color="#1f7bf6"/><stop offset="1" stop-color="#61c8fa"/></linearGradient><circle cx="256" cy="256" fill="url(#a)" r="256"/><path d="m85.74 330.5c0 12 9.8 21.7 21.8 21.7h33.3c24.7 0 40.5-8.2 53.7-25.2l81.6-103.8c11.4-14.6 19.1-19.2 37-19.2h23.2v24.5c0 10.4 6.4 16.9 16.5 16.9 4.9 0 8.5-1.7 11.4-4.2l57.1-48.7c7.5-6.4 7.3-17 0-23.3l-57.1-48.6c-2.9-2.5-6.5-4.1-11.4-4.1-10.1 0-16.5 6.5-16.5 16.9v27.2h-19.5c-28.3 0-49.2 7.1-69.3 32.8l-74.6 95.9c-10.5 13.5-21 19.5-39.8 19.5h-25.6c-12 0-21.8 9.7-21.8 21.7zm0-148.2c0 12 9.8 21.7 21.8 21.7h21.2c18.9 0 33.7 6.1 44.2 19.5l78.7 100.5c15.9 20.2 40.1 28.3 64.8 28.3h20v26.4c0 10.4 6.4 16.9 16.5 16.9 4.9 0 8.5-1.7 11.4-4.1l57.1-48.7c7.5-6.4 7.3-17.1 0-23.4l-57.1-48.6c-2.9-2.5-6.5-4.2-11.4-4.2-10.1 0-16.5 6.5-16.5 16.9v25.3h-19.4c-18.8 0-30.9-6.2-41.4-19.6l-81-103.4c-13.3-17-33.4-25.2-58.1-25.2h-28.9c-12.1 0-21.9 9.8-21.9 21.7z" fill="#fff"/></svg>