<?xml version="1.0" encoding="utf-8"?>
<!-- Generator: Adobe Illustrator 25.0.0, SVG Export Plug-In . SVG Version: 6.00 Build 0)  -->
<svg version="1.1" id="Layer_1" xmlns="http://www.w3.org/2000/svg" xmlns:xlink="http://www.w3.org/1999/xlink" x="0px" y="0px"
	 viewBox="0 0 269 132" style="enable-background:new 0 0 269 132;" xml:space="preserve">
<style type="text/css">
	.st0{fill:#B7B7B7;}
</style>
<g>
	<g>
		<g>
			<path class="st0" d="M20.6,3.5h11.9c7.6,0,12.7,0.4,15.2,1.1s4.1,1.9,5,3.5s1.1,3.4,0.8,5.3c-0.3,2-1.4,5.8-3.4,11.6l-7.2,21.3
				c-1.8,5.5-3.3,9.1-4.5,10.9c-1.1,1.8-2.5,3.3-4.2,4.3c-1.6,1-3.5,1.8-5.5,2.2s-4.9,0.6-8.7,0.6H0L20.6,3.5z M32.9,13.9l-13.5,40
				c2.3,0,3.8-0.5,4.7-1.4c0.8-0.9,1.9-3.4,3.3-7.4l8-23.6c0.9-2.8,1.4-4.5,1.5-5.3c0.1-0.8-0.1-1.3-0.6-1.7
				C35.7,14,34.6,13.9,32.9,13.9z"/>
			<path class="st0" d="M63.2,3.5h11.2c7.5,0,12.4,0.3,14.9,0.9s4.1,2,5,4.4s0.4,6.1-1.3,11.3c-1.6,4.7-3.3,7.9-5,9.5
				s-4.4,2.6-8,2.9c2.9,0.8,4.6,1.8,5.3,3.1c0.6,1.3,0.9,2.5,0.8,3.6s-1,4.1-2.6,9l-5.4,16H63.2L70.1,44c1.1-3.3,1.5-5.3,1.3-6
				c-0.3-0.8-1.5-1.2-3.7-1.2l-9.3,27.4H42.6L63.2,3.5z M75.5,13.9l-4.6,13.5c1.8,0,3.1-0.2,4-0.7s1.8-2.1,2.7-4.7l1.1-3.3
				c0.7-1.9,0.7-3.2,0.2-3.8C78.5,14.2,77.3,13.9,75.5,13.9z"/>
			<path class="st0" d="M140.7,3.5l-13.8,40.6c-1.6,4.6-2.8,7.8-3.7,9.7c-0.9,1.9-2.5,3.8-4.6,5.7c-2.1,2-4.6,3.5-7.4,4.5
				s-5.8,1.5-9.1,1.5c-3.6,0-6.6-0.6-9-1.8s-3.9-2.8-4.7-4.7c-0.7-1.9-0.9-4-0.4-6.1s1.9-6.6,4.2-13.5l12.2-36h15.8L104.8,49
				c-0.9,2.7-1.3,4.3-1.3,5.1c0,0.7,0.5,1.1,1.4,1.1c1,0,1.8-0.4,2.4-1.2s1.4-2.7,2.4-5.8l15.2-44.8h15.8V3.5z"/>
			<path class="st0" d="M146.8,3.5h11.9c7.6,0,12.7,0.4,15.2,1.1s4.1,1.9,5,3.5s1.1,3.4,0.8,5.3c-0.3,2-1.4,5.8-3.4,11.6L169,46.2
				c-1.8,5.5-3.3,9.1-4.5,10.9c-1.1,1.8-2.5,3.3-4.2,4.3c-1.6,1-3.5,1.8-5.5,2.2s-4.9,0.6-8.7,0.6h-20L146.8,3.5z M159.1,13.9
				l-13.5,40c2.3,0,3.8-0.5,4.7-1.4c0.8-0.9,1.9-3.4,3.3-7.4l8-23.6c0.9-2.8,1.4-4.5,1.5-5.3c0.1-0.8-0.1-1.3-0.6-1.7
				C162,14,160.9,13.9,159.1,13.9z"/>
			<path class="st0" d="M218.2,25.8h-15.8l1.9-5.5c1.2-3.5,1.8-5.7,1.8-6.5c0-0.9-0.6-1.3-1.7-1.3c-1,0-1.8,0.4-2.4,1.1
				c-0.6,0.8-1.4,2.7-2.5,5.8l-9.9,29.2c-0.9,2.7-1.4,4.5-1.3,5.4c0.1,0.9,0.6,1.3,1.7,1.3c1.2,0,2.1-0.5,2.8-1.5s1.6-2.9,2.6-5.7
				l2.4-7.2h-3.2l3.1-9.2h18.5l-11,32.6h-10v-4.4c-1.7,1.9-3.6,3.3-5.5,4.2c-2,0.9-4.1,1.4-6.3,1.4c-2.7,0-4.9-0.6-6.8-1.9
				c-1.9-1.3-3.1-2.9-3.7-4.8c-0.6-1.9-0.6-3.9-0.2-6c0.4-2.1,1.3-5.2,2.7-9.4l6.1-18.1c2-5.8,3.7-10,5.2-12.6s4.1-5,7.8-7.2
				s7.9-3.3,12.6-3.3c4.6,0,8.2,1,10.6,2.9c2.4,1.9,3.6,4.2,3.7,6.8c0,2.6-0.8,6.4-2.5,11.4L218.2,25.8z"/>
			<path class="st0" d="M231.9,3.5h26.4l-4.1,12.2h-10.6l-3.9,11.5h9.9l-3.9,11.6h-9.9l-4.5,13.4h11.6l-4.1,12.2h-27.5L231.9,3.5z"
				/>
		</g>
		<g>
			<path class="st0" d="M22.1,70h11.2c7.5,0,12.4,0.3,14.9,0.9c2.5,0.6,4.1,2,5,4.4c0.9,2.4,0.4,6.1-1.3,11.3
				c-1.6,4.7-3.3,7.9-5,9.5s-4.4,2.6-8,2.9c2.9,0.8,4.6,1.8,5.3,3.1c0.6,1.3,0.9,2.5,0.8,3.6s-1,4.1-2.6,9l-5.4,16H22.3l6.8-20.2
				c1.1-3.3,1.5-5.3,1.3-6c-0.3-0.8-1.5-1.2-3.7-1.2l-9.4,27.4H1.5L22.1,70z M34.4,80.4l-4.6,13.5c1.8,0,3.1-0.2,4-0.7
				s1.8-2.1,2.7-4.7l1.1-3.3c0.7-1.9,0.7-3.2,0.2-3.8C37.4,80.7,36.2,80.4,34.4,80.4z"/>
			<path class="st0" d="M63.6,70H90l-4.1,12.2H75.3l-3.9,11.5h9.9l-3.9,11.6h-9.9L63,118.7h11.6l-4.1,12.2H43L63.6,70z"/>
			<path class="st0" d="M95.6,70h16c4.3,0,7.5,0.3,9.6,1c2.1,0.7,3.5,1.7,4.2,2.9c0.7,1.3,1,2.8,0.8,4.6c-0.2,1.8-0.9,4.6-2.2,8.4
				l-1.8,5.3c-1.3,3.9-2.7,6.7-4.1,8.5c-1.4,1.8-3.3,3.1-5.8,4.1s-5.4,1.4-8.9,1.4h-4.3l-8.3,24.5H75L95.6,70z M107.9,80.4
				l-5.2,15.5c0.4,0,0.8,0,1.2,0c1.5,0,2.6-0.4,3.4-1.1c0.8-0.7,1.6-2.2,2.4-4.4l1.7-5c0.7-2.1,0.8-3.4,0.4-4.1
				C111.2,80.7,110,80.4,107.9,80.4z"/>
			<path class="st0" d="M158.4,105.5c-2.1,6.1-3.7,10.4-4.8,13c-1.1,2.5-2.8,4.9-5.1,7c-2.2,2.1-4.8,3.7-7.8,4.8
				c-3,1.1-6.2,1.7-9.6,1.7c-3.3,0-6-0.5-8.2-1.6c-2.2-1.1-3.8-2.7-4.6-4.8c-0.9-2.1-1-4.4-0.5-6.9s1.9-6.9,4-13.1l3.5-10.4
				c2.1-6.1,3.7-10.4,4.8-13c1.1-2.5,2.8-4.9,5.1-7c2.2-2.1,4.8-3.7,7.8-4.8c3-1.1,6.2-1.7,9.6-1.7c3.3,0,6,0.5,8.2,1.6
				s3.8,2.7,4.6,4.8c0.9,2.1,1,4.4,0.5,6.9s-1.9,6.9-4,13.1L158.4,105.5z M149.3,85.6c1-2.8,1.4-4.6,1.4-5.4c0-0.8-0.6-1.2-1.5-1.2
				c-0.8,0-1.6,0.3-2.2,1c-0.7,0.6-1.5,2.5-2.6,5.6l-9.6,28.4c-1.2,3.5-1.8,5.7-1.8,6.5c0,0.8,0.5,1.2,1.6,1.2s1.9-0.5,2.6-1.4
				c0.6-1,1.5-3.2,2.8-6.8L149.3,85.6z"/>
			<path class="st0" d="M176.4,70h11.2c7.5,0,12.4,0.3,14.9,0.9c2.5,0.6,4.1,2,5,4.4c0.9,2.4,0.4,6.1-1.3,11.3
				c-1.6,4.7-3.3,7.9-5,9.5s-4.4,2.6-8,2.9c2.9,0.8,4.6,1.8,5.3,3.1c0.6,1.3,0.9,2.5,0.8,3.6s-1,4.1-2.6,9l-5.4,16h-14.7l6.7-20.2
				c1.1-3.3,1.5-5.3,1.3-6c-0.3-0.8-1.5-1.2-3.7-1.2l-9.3,27.4h-15.8L176.4,70z M188.7,80.4l-4.6,13.5c1.8,0,3.1-0.2,4-0.7
				s1.8-2.1,2.7-4.7l1.1-3.3c0.7-1.9,0.7-3.2,0.2-3.8C191.7,80.7,190.5,80.4,188.7,80.4z"/>
			<path class="st0" d="M249.8,70l-4.1,12.2h-9.4l-16.5,48.6H204l16.5-48.6h-9.4l4.1-12.2C215.2,70,249.8,70,249.8,70z"/>
		</g>
	</g>
	<g>
		<g>
			<path d="M29.1,1.8H41c7.6,0,12.7,0.4,15.2,1.1s4.1,1.9,5,3.5s1.1,3.4,0.8,5.3c-0.3,2-1.4,5.8-3.4,11.6l-7.2,21.3
				c-1.8,5.5-3.3,9.1-4.5,10.9c-1.1,1.8-2.5,3.3-4.2,4.3c-1.6,1-3.5,1.8-5.5,2.2s-4.9,0.6-8.7,0.6h-20L29.1,1.8z M41.4,12.2
				l-13.5,40c2.3,0,3.8-0.5,4.7-1.4c0.8-0.9,1.9-3.4,3.3-7.4l8-23.6c0.9-2.8,1.4-4.5,1.5-5.3s-0.1-1.3-0.6-1.7
				C44.3,12.4,43.2,12.2,41.4,12.2z"/>
			<path d="M71.7,1.8h11.2c7.5,0,12.4,0.3,14.9,0.9s4.1,2,5,4.4s0.4,6.1-1.3,11.3c-1.6,4.7-3.3,7.9-5,9.5s-4.4,2.6-8,2.9
				c2.9,0.8,4.6,1.8,5.3,3.1c0.6,1.3,0.9,2.5,0.8,3.6s-1,4.1-2.6,9l-5.4,16H71.8l6.8-20.2c1.1-3.3,1.5-5.3,1.3-6
				c-0.3-0.8-1.5-1.2-3.7-1.2L67,62.5H51.1L71.7,1.8z M84,12.2l-4.6,13.5c1.8,0,3.1-0.2,4-0.7s1.8-2.1,2.7-4.7l1.1-3.3
				c0.7-1.9,0.7-3.2,0.2-3.8C87,12.5,85.8,12.2,84,12.2z"/>
			<path d="M149.2,1.8l-13.8,40.6c-1.6,4.6-2.8,7.8-3.7,9.7s-2.5,3.8-4.6,5.7c-2.1,2-4.6,3.5-7.4,4.5s-5.8,1.5-9.1,1.5
				c-3.6,0-6.6-0.6-9-1.8s-3.9-2.8-4.7-4.7c-0.7-1.9-0.9-4-0.4-6.1s1.9-6.6,4.2-13.5l12.2-36h15.8l-15.4,45.6
				c-0.9,2.7-1.3,4.3-1.3,5.1c0,0.7,0.5,1.1,1.4,1.1c1,0,1.8-0.4,2.4-1.2s1.4-2.7,2.4-5.8l15.2-44.8h15.8V1.8z"/>
			<path d="M155.3,1.8h11.9c7.6,0,12.7,0.4,15.2,1.1s4.1,1.9,5,3.5s1.1,3.4,0.8,5.3c-0.3,2-1.4,5.8-3.4,11.6l-7.2,21.3
				c-1.8,5.5-3.3,9.1-4.5,10.9c-1.1,1.8-2.5,3.3-4.2,4.3c-1.6,1-3.5,1.8-5.5,2.2s-4.9,0.6-8.7,0.6h-20L155.3,1.8z M167.7,12.2
				l-13.5,40c2.3,0,3.8-0.5,4.7-1.4c0.8-0.9,1.9-3.4,3.3-7.4l8-23.6c0.9-2.8,1.4-4.5,1.5-5.3s-0.1-1.3-0.6-1.7
				C170.5,12.4,169.4,12.2,167.7,12.2z"/>
			<path d="M226.7,24.1h-15.8l1.9-5.5c1.2-3.5,1.8-5.7,1.8-6.5c0-0.9-0.6-1.3-1.7-1.3c-1,0-1.8,0.4-2.4,1.1
				c-0.6,0.8-1.4,2.7-2.5,5.8l-10,29.1c-0.9,2.7-1.4,4.5-1.3,5.4c0.1,0.9,0.6,1.3,1.7,1.3c1.2,0,2.1-0.5,2.8-1.5s1.6-2.9,2.6-5.7
				l2.4-7.2H203l3.1-9.2h18.5l-11,32.6h-10v-4.4c-1.7,1.9-3.6,3.3-5.5,4.2c-2,0.9-4.1,1.4-6.3,1.4c-2.7,0-4.9-0.6-6.8-1.9
				c-1.9-1.3-3.1-2.9-3.7-4.8c-0.6-1.9-0.6-3.9-0.2-6c0.4-2.1,1.3-5.2,2.7-9.4l6.1-18.1c2-5.8,3.7-10,5.2-12.6s4.1-5,7.8-7.2
				s7.9-3.3,12.6-3.3c4.6,0,8.2,1,10.6,2.9c2.4,1.9,3.6,4.2,3.7,6.8c0,2.6-0.8,6.4-2.5,11.4L226.7,24.1z"/>
			<path d="M240.4,1.8h26.4L262.7,14h-10.6l-3.9,11.5h9.9L254.2,37h-9.9l-4.5,13.4h11.6l-4.1,12.2h-27.5L240.4,1.8z"/>
		</g>
		<g>
			<path d="M30.6,68.3h11.2c7.5,0,12.4,0.3,14.9,0.9s4.1,2,5,4.4s0.4,6.1-1.3,11.3c-1.6,4.7-3.3,7.9-5,9.5c-1.7,1.6-4.4,2.6-8,2.9
				c2.9,0.8,4.6,1.8,5.3,3.1c0.6,1.3,0.9,2.5,0.8,3.6s-1,4.1-2.6,9l-5.4,16H30.8l6.8-20.2c1.1-3.3,1.5-5.3,1.3-6
				c-0.3-0.8-1.5-1.2-3.7-1.2L25.9,129H10.1L30.6,68.3z M42.9,78.7l-4.6,13.5c1.8,0,3.1-0.2,4-0.7s1.8-2.1,2.7-4.7l1.1-3.3
				c0.7-1.9,0.7-3.2,0.2-3.8C45.9,79,44.8,78.7,42.9,78.7z"/>
			<path d="M72.1,68.3h26.4l-4.1,12.2H83.8L79.9,92h9.9l-3.9,11.5H76l-4.5,13.4h11.6L79,129.1H51.5L72.1,68.3z"/>
			<path d="M104.1,68.3h16c4.3,0,7.5,0.3,9.6,1c2.1,0.7,3.5,1.7,4.2,2.9c0.7,1.3,1,2.8,0.8,4.6c-0.2,1.8-0.9,4.6-2.2,8.4l-1.8,5.3
				c-1.3,3.9-2.7,6.7-4.1,8.5c-1.4,1.8-3.3,3.1-5.8,4.1s-5.4,1.4-8.9,1.4h-4.3L99.3,129H83.5L104.1,68.3z M116.4,78.7l-5.2,15.5
				c0.4,0,0.8,0,1.2,0c1.5,0,2.6-0.4,3.4-1.1c0.8-0.7,1.6-2.2,2.4-4.4l1.7-5c0.7-2.1,0.8-3.4,0.4-4.1
				C119.7,79,118.5,78.7,116.4,78.7z"/>
			<path d="M166.9,103.9c-2.1,6.1-3.7,10.4-4.8,13c-1.1,2.5-2.8,4.9-5.1,7c-2.2,2.1-4.8,3.7-7.8,4.8c-3,1.1-6.2,1.7-9.6,1.7
				c-3.3,0-6-0.5-8.2-1.6c-2.2-1.1-3.8-2.7-4.6-4.8c-0.9-2.1-1-4.4-0.5-6.9s1.9-6.9,4-13.1l3.5-10.4c2.1-6.1,3.7-10.4,4.8-13
				c1.1-2.5,2.8-4.9,5.1-7c2.2-2.1,4.8-3.7,7.8-4.8c3-1.1,6.2-1.7,9.6-1.7c3.3,0,6,0.5,8.2,1.6s3.8,2.7,4.6,4.8
				c0.9,2.1,1,4.4,0.5,6.9s-1.9,6.9-4,13.1L166.9,103.9z M157.9,83.9c1-2.8,1.4-4.6,1.4-5.4c0-0.8-0.6-1.2-1.5-1.2
				c-0.8,0-1.6,0.3-2.2,1c-0.7,0.6-1.5,2.5-2.6,5.6l-9.7,28.4c-1.2,3.5-1.8,5.7-1.8,6.5c0,0.8,0.5,1.2,1.6,1.2s1.9-0.5,2.6-1.4
				c0.6-1,1.5-3.2,2.8-6.8L157.9,83.9z"/>
			<path d="M184.9,68.3h11.2c7.5,0,12.4,0.3,14.9,0.9s4.1,2,5,4.4s0.4,6.1-1.3,11.3c-1.6,4.7-3.3,7.9-5,9.5c-1.7,1.6-4.4,2.6-8,2.9
				c2.9,0.8,4.6,1.8,5.3,3.1c0.6,1.3,0.9,2.5,0.8,3.6s-1,4.1-2.6,9l-5.4,16h-14.7l6.8-20.2c1.1-3.3,1.5-5.3,1.3-6
				c-0.3-0.8-1.5-1.2-3.7-1.2l-9.3,27.4h-15.9L184.9,68.3z M197.2,78.7l-4.6,13.5c1.8,0,3.1-0.2,4-0.7s1.8-2.1,2.7-4.7l1.1-3.3
				c0.7-1.9,0.7-3.2,0.2-3.8C200.2,79,199,78.7,197.2,78.7z"/>
			<path d="M258.3,68.3l-4.1,12.2h-9.4L228.3,129h-15.8L229,80.4h-9.4l4.1-12.2L258.3,68.3L258.3,68.3z"/>
		</g>
	</g>
</g>
</svg>
